# xmcd
#
# Track frame offsets: 
#        150
#        17576
#        33252
#        49179
#        67709
#        83262
#        101090
#        121060
#        138070
#        156537
#        177048
#        194867
#        216782
#
# Disc length: 3162 seconds
#
# Revision: 2
# Processed by: cddbd v1.5.2PL0 Copyright (c) Steve Scherf et al.
# Submitted via: ExactAudioCopy v1.0b1
#
DISCID=a30c580d
DTITLE=Akon - Konvicted
DYEAR=2006
DGENRE=R&B
TTITLE0=Shake Down
TTITLE1=Blown Away (feat. Styles P)
TTITLE2=Smack That (feat. Eminem)
TTITLE3=I Wanna Love You (feat. Snoop Dogg)
TTITLE4=The Rain
TTITLE5=Never Took The Time
TTITLE6=Mama Africa
TTITLE7=I Can't Wait
TTITLE8=Gangsta Bop
TTITLE9=Tired Of Runnin'
TTITLE10=Once In A While
TTITLE11=Don't Matter
TTITLE12=Gringo [Bonus Track]
EXTD=
EXTT0=
EXTT1=
EXTT2=
EXTT3=
EXTT4=
EXTT5=
EXTT6=
EXTT7=
EXTT8=
EXTT9=
EXTT10=
EXTT11=
EXTT12=
PLAYORDER=
